# xmcd CD database file
#
# Track frame offsets:
#	150
#	11859
#	22879
#	39845
#	52145
#	73179
#	87796
#	106247
#	124264
#	144624
#	164651
#
# Disc length: 2590 seconds
#
# Revision: 8
# Processed by: cddbd v1.5.2PL0 Copyright (c) Steve Scherf et al.
# Submitted via: CDex 1.51
#
DISCID=960a1c0b
DTITLE=Helena Noguerra - Nee Dans La Nature
DYEAR=2004
DGENRE=Pop
TTITLE0=Nee Dans La Nature
TTITLE1=L'age De Ma Móre
TTITLE2=Je T'aime Salaud
TTITLE3=Mary Poppins
TTITLE4=Can't Get You Out Of My Head
TTITLE5=Le Jardin Pres De La Falaise
TTITLE6=Aux Quatre Vents
TTITLE7=Les Fantomes
TTITLE8=Quand Tu Dors
TTITLE9=Je Nageais Nue
TTITLE10=Qui Es-Tu?  -  Feat.Fifi Chachnil_C'est Parapluie
EXTD=YEAR: 2004
EXTT0=
EXTT1=
EXTT2=
EXTT3=
EXTT4=
EXTT5=
EXTT6=
EXTT7=
EXTT8=
EXTT9=
EXTT10=
PLAYORDER=
